#define cpu_width 12
#define cpu_height 16
static unsigned char cpu_bits[] = {
   0x00, 0x00, 0x90, 0x00, 0xfc, 0x03, 0x06, 0x06, 0x02, 0x04, 0xf3, 0x0c,
   0x92, 0x04, 0x92, 0x04, 0xf3, 0x0c, 0x02, 0x04, 0x06, 0x06, 0xfc, 0x03,
   0x90, 0x00, 0x00, 0x00, 0x00, 0x00, 0x00, 0x00 };
