#define memory_width 12
#define memory_height 12
static unsigned char memory_bits[] = {
   0xf0, 0x00, 0xf8, 0x01, 0xfe, 0x07, 0xf8, 0x01, 0xfe, 0x07, 0xf8, 0x01,
   0xfe, 0x07, 0xf8, 0x01, 0xfe, 0x07, 0xf8, 0x01, 0xf0, 0x00, 0x00, 0x00 };
