#define temp_low_width 12
#define temp_low_height 12
static unsigned char temp_low_bits[] = {
   0xe0, 0x00, 0xb0, 0x0d, 0x10, 0x01, 0x10, 0x0d, 0x10, 0x01, 0x10, 0x0d,
   0x10, 0x01, 0x48, 0x02, 0xe8, 0x02, 0x48, 0x02, 0x10, 0x01, 0xe0, 0x00 };
