#define vol_1_width 12
#define vol_1_height 12
static unsigned char vol_1_bits[] = {
   0x00, 0x00, 0x20, 0x00, 0x30, 0x00, 0x38, 0x00, 0x3e, 0x05, 0x3e, 0x02,
   0x3e, 0x05, 0x38, 0x00, 0x30, 0x00, 0x20, 0x00, 0x00, 0x00, 0x00, 0x00 };
