#define vol0_width 12
#define vol0_height 12
static unsigned char vol0_bits[] = {
   0x00, 0x00, 0x20, 0x00, 0x30, 0x00, 0x38, 0x00, 0x3e, 0x00, 0x3e, 0x00,
   0x3e, 0x00, 0x38, 0x00, 0x30, 0x00, 0x20, 0x00, 0x00, 0x00, 0x00, 0x00 };
