#define vol1_width 12
#define vol1_height 12
static unsigned char vol1_bits[] = {
   0x00, 0x00, 0x20, 0x00, 0x30, 0x00, 0xb8, 0x00, 0x3e, 0x01, 0x3e, 0x01,
   0x3e, 0x01, 0xb8, 0x00, 0x30, 0x00, 0x20, 0x00, 0x00, 0x00, 0x00, 0x00 };
