#define vol2_width 12
#define vol2_height 12
static unsigned char vol2_bits[] = {
   0x00, 0x00, 0x20, 0x03, 0x30, 0x04, 0xb8, 0x04, 0x3e, 0x09, 0x3e, 0x09,
   0x3e, 0x09, 0xb8, 0x04, 0x30, 0x04, 0x20, 0x03, 0x00, 0x00, 0x00, 0x00 };
