/* XPM */
static char * XFACE[] = {
"23 16 6 1",
"B c #1d2021",
"k c #263640",
"b c #458588",
"c c #83a598",
"g c #d65d0e",
"r c #fe8019",
"BBBBBBBBBBBkBBBBBBBBBBB",
"BBBBBBBBBBkckBBBBBBBBBB",
"BBBBBBBBBBkckBBBBBBBBBB",
"BBBBBBBBBkkbkkBBBBBBBBB",
"BBBBBBBkkckbkckkBBBBBBB",
"BBBBBBkbccckcccbkBBBBBB",
"BBBBBggcccckccccggBBBBB",
"BBBBgrrcccccccccrrgBBBB",
"BBBBBgrccBcccBcrrgBBBBB",
"BBBBgrrrcBcccBcrrrgBBBB",
"BBBBBggbcccccccbggBBBBB",
"BBBBBBBkkkkkkkkkBBBBBBB",
"BBBBBBBkkbbbbbkkBBBBBBB",
"BBBBBBBkbbbbbbbkBBBBBBB",
"BBBBBBBkcckkkcckBBBBBBB",
"BBBBBBBBkkBBBkkBBBBBBBB",
};
